<svg width="13140" height="2492" viewBox="0 0 13140 2492" fill="none" xmlns="http://www.w3.org/2000/svg">
<path fill-rule="evenodd" clip-rule="evenodd" d="M6270.84 0.816406H12799.3C12921.5 0.816406 13034.7 66.3919 13095.1 172.869C13155.8 279.123 13154.7 409.607 13092.2 514.973L12424.8 1642.23L12362.9 1545.29C12511.6 1471.26 12586.1 1339.45 12586.1 1149.61C12586.1 1012.68 12541.7 907.314 12452.7 833.069C12363.8 758.38 12237.8 721.035 12074.8 721.035H11525.3V1950.74H11838.3V1604.86H12083.7L12255.2 1928.66L12226.2 1977.64C12037.5 2296.4 11694.5 2491.8 11324.2 2491.8H4795.73C4673.47 2491.8 4560.32 2426.22 4499.86 2319.74C4439.17 2213.49 4440.28 2083 4502.75 1977.64L5008.02 1124.27L5278.13 1950.74H5601.79L5832.97 1100.71L6061.48 1950.74H6383.36L6788.82 721.035H6468.72L6232.2 1626.2L5991.24 721.035H5686.26L5450.63 1626.2L5221.18 764.272L5368.79 514.973C5557.51 196.209 5900.51 0.816406 6270.84 0.816406ZM7111.64 967.332H7761.62V721.035H6798.66V1950.74H7780.29V1704.45H7111.64V1457.26H7697.6V1211.85H7111.64V967.332ZM9016.63 1950.74H8740.99L8175.49 1194.07V1950.74H7882.07V721.035H8157.71L8724.99 1480.38V721.035H9016.63V1950.74ZM10021 1950.74H10296.6V721.035H10005V1480.38L9437.68 721.035H9162.04V1950.74H9455.46V1194.07L10021 1950.74ZM11405 967.332H10755V1211.85H11341V1457.26H10755V1704.45H11423.6V1950.74H10442V721.035H11405V967.332ZM12074.8 1358.56H11838.3V967.332H12074.8C12142.9 967.332 12195.8 984.004 12233.1 1017.13C12270.5 1049.8 12289.1 1097.59 12289.1 1160.28C12289.1 1224.97 12270.5 1274.09 12233.1 1307.88C12195.8 1341.67 12142.9 1358.56 12074.8 1358.56Z" fill="black"/>
<path d="M948.733 1633.31H410.792L321.876 1860.05H0L530.828 630.34H851.815L1370.19 1860.05H1035.87L948.733 1633.31ZM857.149 1396.8L681.096 941.546L502.375 1396.8H857.149Z" fill="black"/>
<path d="M2200.61 1234.91H2470.92V1714.17C2403.79 1761.07 2323.32 1799.53 2229.07 1829.76C2134.82 1859.55 2045.01 1874.22 1959.65 1874.22C1772.26 1874.22 1615.77 1814.42 1490.18 1694.61C1365.03 1574.35 1302.56 1424.75 1302.56 1245.58C1302.56 1067.75 1366.8 919.261 1495.51 800.114C1624.66 680.522 1786.49 620.504 1980.99 620.504C2072.13 620.504 2162.82 636.953 2253.07 669.408C2343.1 702.084 2419.79 746.542 2483.37 802.782L2307.31 1015.29C2262.85 974.389 2211.28 942.157 2152.6 918.372C2094.36 894.143 2036.56 881.917 1979.21 881.917C1878.29 881.917 1793.6 917.039 1724.91 986.837C1656.67 1056.19 1622.66 1142.44 1622.66 1245.58C1622.66 1350.06 1656.89 1437.42 1725.8 1507.88C1795.16 1577.91 1880.74 1612.81 1982.77 1612.81C2047.9 1612.81 2120.59 1592.8 2200.61 1552.34V1234.91Z" fill="black"/>
<path d="M3171.3 620.504C3362.02 620.504 3520.74 680.078 3647 799.225C3773.26 917.928 3836.39 1065.97 3836.39 1243.8C3836.39 1422.97 3772.81 1572.79 3646.11 1693.72C3519.18 1814.2 3360.91 1874.22 3171.3 1874.22C2981.46 1874.22 2823.19 1814.42 2696.48 1694.61C2570.22 1574.35 2507.09 1424.08 2507.09 1243.8C2507.09 1064.86 2570.22 916.372 2696.48 798.336C2823.19 679.855 2981.46 620.504 3171.3 620.504ZM3174.85 881.917C3078.82 881.917 2996.58 917.039 2928.56 986.837C2860.98 1056.19 2827.19 1142.44 2827.19 1245.58C2827.19 1348.73 2861.2 1435.86 2929.44 1507C2998.13 1577.68 3079.93 1612.81 3174.85 1612.81C3269.55 1612.81 3350.02 1577.68 3415.81 1507C3482.06 1435.86 3515.4 1348.73 3515.4 1245.58C3515.4 1142.44 3482.06 1056.19 3415.81 986.837C3350.02 917.039 3269.55 881.917 3174.85 881.917Z" fill="black"/>
<path d="M4374.33 617C4557.94 617 4719.55 662.792 4858.92 753.931L4740.66 997.56C4676.64 960.215 4607.51 929.762 4533.49 905.977C4459.91 881.747 4397.89 869.521 4347.65 869.521C4257.4 869.521 4212.5 899.53 4212.5 959.326C4212.5 998.005 4234.73 1029.13 4279.19 1052.69C4323.65 1075.81 4377.44 1096.03 4441.02 1113.15C4505.04 1129.82 4568.61 1150.27 4632.19 1174.5C4696.21 1198.29 4750.44 1237.19 4794.9 1290.98C4839.8 1345 4862.48 1412.8 4862.48 1494.6C4862.48 1613.3 4816.24 1705.78 4723.77 1772.02C4631.3 1837.82 4513.48 1870.71 4370.77 1870.71C4268.74 1870.71 4168.04 1853.38 4068.46 1818.25C3968.87 1782.69 3882.18 1734.67 3808.82 1674.21L3929.75 1433.25C3991.99 1487.26 4065.12 1531.5 4149.37 1565.73C4233.4 1600.19 4308.53 1617.3 4374.33 1617.3C4424.12 1617.3 4462.8 1608.41 4490.81 1590.63C4519.26 1572.4 4533.49 1545.73 4533.49 1510.6C4533.49 1476.82 4517.48 1448.81 4485.47 1426.13C4453.46 1403.02 4413.45 1385.9 4365.44 1374.56C4317.42 1363.45 4265.19 1348.56 4208.95 1330.11C4152.48 1311.21 4100.47 1290.76 4052.45 1268.75C4004.44 1246.3 3964.43 1210.74 3932.42 1162.05C3900.41 1113.6 3884.4 1055.13 3884.4 986.89C3884.4 874.856 3929.08 785.496 4018.67 718.364C4108.03 650.788 4226.73 617 4374.33 617Z" fill="black"/>
</svg>
